<svg width="60" height="60" viewBox="0 0 60 60" fill="none" xmlns="http://www.w3.org/2000/svg">
<path d="M16.5043 9.04784L17.2306 7.86021L18.4969 8.5111L17.7706 9.69874L16.5043 9.04784ZM19.0859 10.378L19.8122 9.19041L29.2107 14.0212L28.4844 15.2088L19.0859 10.378ZM6.33201 15.9752L7.05832 14.7875L8.32465 15.4384L7.59834 16.6261L6.33201 15.9752ZM8.91375 17.3054L9.64007 16.1177L19.0386 20.9485L18.3123 22.1362L8.91375 17.3054ZM25.1544 20.0206L25.8807 18.833L27.147 19.4839L26.4207 20.6715L25.1544 20.0206ZM14.4405 14.5105L15.1668 13.3229L24.5655 18.1537L23.8391 19.3413L14.4405 14.5105ZM18.774 42.2206C17.9538 42.2309 17.2994 42.847 17.3088 43.5999C17.3103 43.7178 17.3316 43.8355 17.3627 43.953L14.2468 46.8863L15.3064 47.8346L18.4223 44.9014C18.5412 44.9271 18.6699 44.9436 18.8082 44.9419C19.3517 44.935 19.8325 44.6568 20.0843 44.2454L23.2563 44.2055L23.2392 42.8449L20.0672 42.8848C19.8052 42.4889 19.3274 42.2136 18.774 42.2206ZM40.4895 39.2258L41.9718 39.2071L41.9889 40.5678L40.5066 40.5864L40.4895 39.2258ZM44.7152 33.3754L46.1974 33.3567L46.2145 34.7174L44.7323 34.736L44.7152 33.3754Z" fill="#B44028"/>
<path d="M51.081 25.291L35.4056 16.6508H34.6825L19.0071 25.291L18.6408 25.8891V33.7381C13.5506 34.0969 9.52087 38.1548 9.52087 43.1053C9.52087 48.2858 13.9362 52.5001 19.3638 52.5001C22.7187 52.5001 25.688 50.8898 27.4715 48.433L34.6825 52.4081H35.4056L51.081 43.7678L51.4474 43.1697V25.8891L51.081 25.291ZM35.0392 18.0494L49.2686 25.8891L45.4992 27.9963L31.2505 20.1474L35.0392 18.0494ZM27.7318 43.7954C27.5775 45.4885 26.8738 47.0343 25.794 48.2581L24.8878 47.3932L23.8659 48.3686L24.7721 49.2335C23.4803 50.2641 21.8703 50.945 20.0965 51.083V48.9115H18.6504V51.083C16.8766 50.9358 15.257 50.2641 13.9748 49.2335L14.881 48.3686L13.8591 47.3932L12.9529 48.2581C11.8732 47.0251 11.1598 45.4885 11.0151 43.7954H13.2903V42.4152H11.0055C11.1598 40.7221 11.8635 39.1762 12.9432 37.9524L13.8495 38.8173L14.8713 37.842L13.9651 36.977C15.257 35.9464 16.8669 35.2655 18.6408 35.1275V37.2991H20.0868V35.1275C21.8607 35.2747 23.4803 35.9464 24.7625 36.977L23.8563 37.842L24.8782 38.8173L25.7844 37.9524C26.8738 39.1854 27.5775 40.7221 27.7221 42.4152H25.447V43.7954H27.7318ZM34.3258 50.6138L28.2041 47.246C28.8501 45.9946 29.2067 44.5959 29.2067 43.1145C29.2067 38.164 25.177 34.0969 20.0868 33.7473V27.0945L34.3644 34.9803L34.3258 50.6138ZM35.0874 33.7749L20.8099 25.8891L25.5916 23.2575L39.8595 31.1248L35.0874 33.7749ZM49.9916 42.774L46.2222 44.8536V35.8452H44.7761V45.6449L42.0286 47.1632V41.7342H40.5825V47.9637L35.7719 50.6138L35.8105 34.9803L40.5825 32.3302V37.5935H42.0286V31.1248L41.6623 30.5267L27.0376 22.4661L29.8045 20.9387L44.7761 29.1925V31.7045H46.2222V29.1833L49.9916 27.0853V42.774Z" fill="#B44028"/>
</svg>
