<svg width="60" height="60" viewBox="0 0 60 60" fill="none" xmlns="http://www.w3.org/2000/svg">
<g clip-path="url(#clip0_1_1690)">
<path d="M52.2072 44.5821L47.6951 41.5495L48.3964 40.2041C48.4575 40.0871 48.4822 39.9544 48.4675 39.8232C48.4528 39.6919 48.3993 39.5681 48.3139 39.4676C48.2601 39.4042 47.039 37.9899 44.2562 36.5586C45.2516 34.3826 46.0527 32.0029 46.651 29.4392C48.4517 21.7239 47.8024 15.0994 47.7738 14.8212C47.7583 14.6699 47.6914 14.5286 47.5843 14.4211C47.4773 14.3135 47.3366 14.2463 47.1859 14.2307C41.941 13.6874 37.6661 11.9308 35.0037 10.553C32.1095 9.05518 30.4386 7.66734 30.4224 7.65383C30.3039 7.55437 30.1543 7.49988 29.9998 7.49988C29.8453 7.49988 29.6957 7.55437 29.5772 7.65383C29.5114 7.70908 22.8829 13.1876 12.8136 14.2308C12.663 14.2464 12.5223 14.3136 12.4152 14.4212C12.3081 14.5287 12.2412 14.67 12.2257 14.8213C12.2129 14.9462 11.9161 17.9284 12.2504 22.2265C12.257 22.3132 12.2806 22.3977 12.3199 22.4752C12.3591 22.5527 12.4131 22.6216 12.4789 22.6781C12.5447 22.7346 12.6209 22.7775 12.7032 22.8044C12.7855 22.8313 12.8723 22.8416 12.9586 22.8347C13.1328 22.8211 13.2945 22.7385 13.4081 22.6051C13.5217 22.4717 13.5779 22.2985 13.5643 22.1235C13.3198 18.9795 13.4266 16.5191 13.4952 15.4862C18.7131 14.8584 22.9599 13.0996 25.6378 11.7098C27.8203 10.577 29.3151 9.52041 29.9998 9.00195C30.6842 9.52041 32.1793 10.577 34.3616 11.7098C37.0396 13.0996 41.2862 14.8584 46.5041 15.4862C46.6174 17.2019 46.8332 22.859 45.3678 29.1373C44.733 31.8571 43.8637 34.3577 42.7717 36.6147C42.7411 36.6779 42.7098 36.7402 42.6788 36.8029C42.574 37.016 42.4667 37.2278 42.3569 37.4384C42.223 37.694 42.0854 37.9477 41.9442 38.1993C41.8871 38.3013 41.8294 38.4031 41.7711 38.5044C41.7126 38.6057 41.6534 38.7066 41.5937 38.8072C41.5507 38.8796 41.5071 38.9513 41.4636 39.0231C41.3237 39.254 41.1805 39.4829 41.0338 39.7097C41.0231 39.7262 41.0127 39.7429 41.002 39.7594C40.8935 39.9256 40.7832 40.0906 40.6711 40.2543C40.219 40.9173 39.7359 41.5584 39.2235 42.1755L39.2148 42.1861C39.1168 42.3037 39.0177 42.4203 38.9175 42.5361C38.8388 42.6267 38.7594 42.7167 38.6793 42.8061C38.6632 42.8241 38.6473 42.8424 38.6313 42.8604C38.5411 42.9607 38.4501 43.0602 38.3583 43.159L38.3442 43.1741C36.0181 45.6718 33.2232 47.5999 29.9998 48.9264C26.8439 47.6265 23.3108 45.4024 20.3141 41.6013L20.2854 41.5647C20.2249 41.4874 20.1648 41.4097 20.1053 41.3316C19.0122 39.8954 18.0421 38.3042 17.209 36.5761C17.1899 36.5365 17.1669 36.4989 17.1404 36.4639C15.631 33.3096 14.459 29.4607 13.8399 24.7616C13.8158 24.5886 13.7245 24.4323 13.5861 24.3266C13.4476 24.2209 13.2732 24.1744 13.1008 24.1973C12.9284 24.2202 12.772 24.3106 12.6657 24.4489C12.5594 24.5871 12.5118 24.7619 12.5333 24.9352C13.1013 29.2465 14.1793 33.143 15.7435 36.5586C12.9604 37.99 11.7394 39.4044 11.6855 39.4677C11.6002 39.5682 11.5467 39.692 11.532 39.8233C11.5173 39.9545 11.542 40.0872 11.6029 40.2042L12.3043 41.5496L7.79226 44.5822C7.69828 44.6454 7.62209 44.7319 7.57101 44.8332C7.51994 44.9346 7.4957 45.0475 7.50063 45.1609C7.50555 45.2744 7.53948 45.3848 7.59914 45.4813C7.65881 45.5778 7.7422 45.6573 7.8413 45.712L11.5278 47.7483V51.8379C11.5279 51.9546 11.5587 52.0692 11.6171 52.1701C11.6754 52.271 11.7593 52.3546 11.8602 52.4124C11.9611 52.4703 12.0755 52.5003 12.1917 52.4995C12.3079 52.4987 12.4218 52.467 12.5219 52.4077L19.844 48.0667C19.8486 48.064 19.8526 48.0609 19.8571 48.0581C19.8778 48.0449 19.8979 48.0308 19.9172 48.0156C19.9232 48.0108 19.9292 48.0062 19.935 48.0012C19.9505 47.9881 19.9652 47.9743 19.9792 47.96C19.9815 47.9577 19.9839 47.9557 19.9861 47.9533C20.0032 47.9354 20.019 47.9166 20.0337 47.8971L20.0353 47.8952C20.0365 47.8936 20.0373 47.8919 20.0385 47.8903C20.0536 47.8697 20.0673 47.8484 20.0799 47.8264C20.0825 47.8217 20.0853 47.8171 20.0879 47.8124C20.1006 47.7888 20.1121 47.7646 20.1219 47.7397C20.1236 47.7355 20.1249 47.7311 20.1265 47.7268C20.1344 47.7053 20.1411 47.6834 20.1469 47.6612C20.1483 47.6553 20.15 47.6495 20.1513 47.6436C20.1572 47.6177 20.1617 47.5917 20.1645 47.5652C20.1649 47.5617 20.165 47.5581 20.1652 47.5545C20.1673 47.5307 20.168 47.5068 20.1675 47.4828C20.167 47.45 20.1641 47.4174 20.1588 47.3851L20.1576 47.3794C20.1519 47.3481 20.144 47.3174 20.1338 47.2873C20.1254 47.2611 20.1152 47.2355 20.1035 47.2106L19.2008 45.3188C19.7427 45.0476 20.375 44.7695 21.1027 44.5075C23.5351 47.0008 26.4279 48.9251 29.7565 50.2548C29.9129 50.3173 30.0872 50.3173 30.2436 50.2548C33.5662 48.9274 36.4635 47.0013 38.8976 44.5077C39.6252 44.7697 40.2575 45.0477 40.7992 45.3189L39.8965 47.2106C39.882 47.2415 39.8699 47.2735 39.8603 47.3063C39.853 47.3304 39.847 47.3549 39.8425 47.3797C39.8421 47.3815 39.8416 47.3834 39.8413 47.3852C39.8369 47.4121 39.8341 47.4393 39.833 47.4665C39.8327 47.4721 39.8327 47.4776 39.8326 47.483C39.8322 47.507 39.8328 47.531 39.8349 47.5548C39.8353 47.5583 39.8353 47.5619 39.8356 47.5655C39.8383 47.5919 39.8429 47.618 39.8488 47.6437C39.8501 47.6498 39.8518 47.6556 39.8534 47.6615C39.859 47.6836 39.8658 47.7054 39.8737 47.7269C39.8752 47.7312 39.8766 47.7356 39.8782 47.74C39.888 47.7648 39.8994 47.7889 39.9122 47.8125C39.9147 47.8173 39.9175 47.822 39.9202 47.8266C39.9328 47.8485 39.9464 47.8699 39.9615 47.8903C39.9627 47.8919 39.9635 47.8937 39.9647 47.8953L39.9663 47.8972C39.9811 47.9167 39.9969 47.9355 40.0139 47.9534C40.0161 47.9558 40.0185 47.9578 40.0208 47.9601C40.0348 47.9744 40.0495 47.9882 40.065 48.0013C40.0708 48.0062 40.0769 48.0109 40.0828 48.0157C40.1021 48.0309 40.1221 48.0451 40.1429 48.0581C40.1474 48.061 40.1514 48.0641 40.156 48.0668L47.478 52.4078C47.578 52.4672 47.692 52.499 47.8082 52.4999C47.9245 52.5007 48.0389 52.4706 48.1398 52.4127C48.2407 52.3548 48.3246 52.2711 48.3829 52.1702C48.4413 52.0693 48.472 51.9547 48.472 51.838V47.7483L52.1586 45.712C52.2577 45.6573 52.3411 45.5778 52.4008 45.4813C52.4605 45.3848 52.4945 45.2744 52.4994 45.1609C52.5042 45.0474 52.4798 44.9345 52.4286 44.8332C52.3774 44.7318 52.3012 44.6454 52.2072 44.5821ZM12.846 50.6785V47.3567C12.8459 47.2382 12.8142 47.1219 12.7541 47.02C12.6941 46.918 12.6078 46.834 12.5045 46.7769L9.42604 45.0766L12.9193 42.7289L15.2371 47.175C15.2498 47.1994 15.264 47.2228 15.2795 47.2452C15.2856 47.2539 15.2927 47.2617 15.2991 47.2701C15.3093 47.2835 15.3193 47.2971 15.3305 47.3094C15.3416 47.3218 15.3537 47.333 15.3656 47.3445C15.373 47.3516 15.3801 47.3592 15.3879 47.3659C15.4025 47.3787 15.418 47.3904 15.4338 47.4018C15.4395 47.406 15.445 47.4104 15.4508 47.4144C15.4684 47.4264 15.4868 47.4371 15.5055 47.4475C15.5099 47.4498 15.5142 47.4524 15.5187 47.4547C15.5421 47.4669 15.5663 47.4776 15.5911 47.4867C15.6162 47.4961 15.6418 47.5039 15.6678 47.5101C15.6821 47.5136 15.6961 47.518 15.7108 47.5204L17.6231 47.8464L12.846 50.6785ZM17.3172 46.4518C17.3325 46.4405 17.3487 46.4289 17.3646 46.4174C17.3987 46.3928 17.4327 46.3683 17.4686 46.343C17.4906 46.3275 17.514 46.3116 17.5367 46.2959C17.5734 46.2705 17.6098 46.2451 17.6482 46.2191C17.6714 46.2035 17.6961 46.1873 17.72 46.1714C17.7604 46.1445 17.8003 46.1179 17.8425 46.0904C17.8576 46.0806 17.8739 46.0706 17.8893 46.0607C17.9368 46.0301 17.9847 45.9996 18.0343 45.9685L18.046 45.9614L18.3652 46.6303L17.3172 46.4518ZM18.0101 44.4503C18.0082 44.4514 18.0062 44.4519 18.0044 44.453L17.9878 44.4623L17.9876 44.4624L17.981 44.4661C17.9029 44.5096 17.8252 44.5538 17.7479 44.5987C17.7185 44.6157 17.6891 44.6327 17.6604 44.6496L17.6507 44.6554L17.6374 44.6632C17.5582 44.71 17.4816 44.7562 17.4067 44.8023L17.3718 44.8237C17.3264 44.8518 17.2822 44.8796 17.2383 44.9074L17.2105 44.9252L17.2071 44.9273C16.7003 45.2508 16.3015 45.5505 16.0055 45.7958L13.8495 41.6603L12.993 40.0166C13.4728 39.562 14.5376 38.6687 16.3185 37.7498C16.3866 37.8837 16.4557 38.0171 16.5258 38.1501C16.5613 38.2174 16.5976 38.2839 16.6335 38.3509C16.7241 38.52 16.8164 38.6882 16.9102 38.8555C16.9311 38.8927 16.9508 38.9308 16.9717 38.9678C17.6757 40.2101 18.4521 41.3688 19.297 42.4446L19.3557 42.5192C19.4243 42.606 19.4933 42.6923 19.5629 42.7779C19.5987 42.822 19.6347 42.8657 19.6707 42.9094C19.7319 42.9838 19.793 43.0583 19.8548 43.1319C19.9468 43.2414 20.0397 43.3502 20.1336 43.4582C19.3115 43.7799 18.6076 44.1197 18.0101 44.4503ZM39.8664 43.4581C39.8675 43.4563 39.869 43.4545 39.8705 43.4529C39.9274 43.3876 39.9833 43.3214 40.0393 43.2555C40.0735 43.2154 40.108 43.1757 40.142 43.1354C40.2279 43.0333 40.313 42.9305 40.3973 42.8271L40.4059 42.8166C40.8219 42.3067 41.2188 41.7815 41.5959 41.242C41.6463 41.1698 41.6948 41.0955 41.7446 41.0227C41.8053 40.9343 41.8655 40.8456 41.9252 40.7564C42.0463 40.5748 42.1652 40.3917 42.2818 40.2071C42.5775 39.7416 42.8597 39.2676 43.1282 38.7858C43.1677 38.7149 43.2074 38.6443 43.2464 38.5729C43.3729 38.3416 43.4964 38.1087 43.6169 37.8742C43.6383 37.8327 43.66 37.7916 43.6812 37.75C45.4495 38.6637 46.5222 39.5622 47.0059 40.0182L43.994 45.7958C43.6979 45.5505 43.2991 45.2507 42.7921 44.9272L42.7891 44.9252L42.7613 44.9074C42.7175 44.8796 42.6733 44.8518 42.628 44.8238L42.5841 44.797C42.512 44.7527 42.4383 44.7082 42.3622 44.6632L42.3489 44.6554L42.3392 44.6496C42.3105 44.6327 42.281 44.6157 42.2517 44.5987C42.2023 44.5701 42.1523 44.5415 42.1013 44.5126C42.0739 44.4972 42.0465 44.4817 42.0186 44.4661L42.012 44.4624L42.0119 44.4623L41.9953 44.453C41.9935 44.4519 41.9915 44.4513 41.9896 44.4502C41.3923 44.1198 40.6885 43.7799 39.8664 43.4581ZM41.8237 46.2344L41.9539 45.9616L41.9657 45.9688C42.0153 45.9997 42.0628 46.0301 42.11 46.0605C42.1256 46.0705 42.1422 46.0807 42.1576 46.0907C42.1999 46.1181 42.2399 46.145 42.2803 46.172C42.304 46.1877 42.3286 46.2037 42.3516 46.2193C42.3901 46.2453 42.4266 46.2707 42.4634 46.2962C42.4861 46.312 42.5095 46.3278 42.5315 46.3434C42.5666 46.3682 42.6 46.3922 42.6335 46.4164C42.65 46.4283 42.6669 46.4404 42.683 46.4521L41.6351 46.6308L41.8237 46.2344ZM47.4951 46.7769C47.3917 46.834 47.3055 46.918 47.2455 47.02C47.1854 47.122 47.1537 47.2383 47.1537 47.3568V50.6786L42.3767 47.8463L44.289 47.5204C44.2959 47.5192 44.3025 47.5168 44.3094 47.5154C44.3373 47.5097 44.3648 47.5022 44.3918 47.4931C44.4071 47.4878 44.4221 47.482 44.4369 47.4755C44.4479 47.4708 44.4588 47.4661 44.4695 47.4608C44.484 47.4536 44.498 47.4457 44.5119 47.4375C44.522 47.4316 44.5321 47.4258 44.5418 47.4194C44.5555 47.41 44.569 47.4001 44.582 47.3897C44.5907 47.3829 44.5997 47.3766 44.6079 47.3693C44.6215 47.3573 44.6346 47.3448 44.6471 47.3317C44.6539 47.3248 44.6611 47.3184 44.6675 47.3112C44.6824 47.2947 44.6961 47.2769 44.7093 47.2588C44.7126 47.2542 44.7165 47.2502 44.7196 47.2455C44.7353 47.223 44.7496 47.1993 44.7625 47.1747L47.0803 42.7287L50.5735 45.0764L47.4951 46.7769Z" fill="#B44028"/>
<path d="M43.6959 18.1589C43.6804 18.0076 43.6135 17.8663 43.5064 17.7588C43.3994 17.6512 43.2587 17.584 43.108 17.5684C35.5058 16.7808 30.472 12.6354 30.4225 12.594C30.304 12.4947 30.1546 12.4403 30.0002 12.4402C29.8458 12.4401 29.6963 12.4944 29.5777 12.5936C29.5278 12.6355 24.494 16.7809 16.8917 17.5684C16.7411 17.584 16.6004 17.6512 16.4933 17.7588C16.3862 17.8663 16.3193 18.0076 16.3038 18.1589C16.2912 18.2816 16.001 21.2093 16.4537 25.2069C16.8732 28.9101 18.0423 34.2505 21.2289 38.6614C21.29 38.7461 21.3703 38.815 21.4631 38.8625C21.5559 38.91 21.6586 38.9347 21.7627 38.9346C21.8842 38.9345 22.0033 38.9007 22.1068 38.8369C22.2104 38.7731 22.2944 38.6819 22.3495 38.5732C22.4046 38.4645 22.4288 38.3426 22.4192 38.221C22.4097 38.0994 22.3669 37.9828 22.2955 37.8841C19.2838 33.7151 18.1705 28.6251 17.7668 25.0892C17.4358 22.1899 17.5145 19.8304 17.5755 18.8222C24.1 18.0075 28.6349 14.9621 29.9998 13.9402C31.3648 14.9622 35.8992 18.0078 42.4245 18.8222C42.4696 19.559 42.5242 21.018 42.4196 22.8855C42.4147 22.9723 42.4269 23.0591 42.4555 23.1412C42.4841 23.2232 42.5285 23.2988 42.5862 23.3636C42.6438 23.4284 42.7136 23.4811 42.7916 23.5188C42.8695 23.5565 42.9541 23.5784 43.0405 23.5833C43.4049 23.6031 43.7152 23.3249 43.7355 22.9599C43.8935 20.1364 43.7041 18.2384 43.6959 18.1589ZM42.9173 24.9479C42.744 24.9259 42.569 24.974 42.4309 25.0815C42.2928 25.189 42.2029 25.3472 42.1809 25.5213C40.7141 37.1604 34.8028 41.9875 29.9996 43.9853C27.6785 43.0208 25.6431 41.6365 23.9467 39.8682C23.825 39.7436 23.6593 39.6724 23.4856 39.6699C23.3119 39.6675 23.1442 39.734 23.0191 39.8551C22.8939 39.9761 22.8215 40.1419 22.8175 40.3163C22.8134 40.4908 22.8782 40.6597 22.9976 40.7865C24.8842 42.7531 27.1581 44.2765 29.7562 45.3144C29.9126 45.3768 30.0869 45.3768 30.2433 45.3144C34.4917 43.6171 37.8168 40.6622 40.126 36.5316C41.8357 33.4734 42.9669 29.825 43.4883 25.6875C43.5103 25.5134 43.4624 25.3377 43.3553 25.199C43.2482 25.0603 43.0907 24.97 42.9173 24.9479Z" fill="#B44028"/>
<path d="M37.3683 23.3414C36.4683 22.4377 35.0042 22.4379 34.1042 23.3415L28.2348 29.2358L26.1162 27.108C25.2162 26.2043 23.7521 26.2044 22.8521 27.1081C21.9523 28.0119 21.9523 29.4823 22.8521 30.386L26.603 34.1527C27.0387 34.5905 27.6184 34.8314 28.2348 34.8314C28.8515 34.8314 29.431 34.5903 29.8669 34.1526L37.3684 26.6194C38.2682 25.7157 38.2682 24.2452 37.3683 23.3414ZM36.4366 25.6835L28.9351 33.2168C28.7481 33.4045 28.4995 33.5079 28.235 33.5079C27.9706 33.5079 27.7219 33.4045 27.535 33.2168L23.7843 29.4502C23.3982 29.0624 23.3982 28.4317 23.7841 28.044C23.876 27.9516 23.9852 27.8783 24.1053 27.8284C24.2255 27.7785 24.3543 27.753 24.4843 27.7532C24.7378 27.7532 24.9913 27.8502 25.1844 28.044L27.7689 30.6397C27.8301 30.7012 27.9028 30.7499 27.9827 30.7832C28.0627 30.8165 28.1484 30.8336 28.2349 30.8336C28.3215 30.8336 28.4072 30.8165 28.4871 30.7832C28.5671 30.7499 28.6397 30.7012 28.7009 30.6397L35.0362 24.2774C35.4224 23.8896 36.0504 23.8895 36.4366 24.2773C36.8226 24.6651 36.8226 25.2959 36.4366 25.6835Z" fill="#B44028"/>
</g>
<defs>
<clipPath id="clip0_1_1690">
<rect width="45" height="45" fill="white" transform="translate(7.5 7.5)"/>
</clipPath>
</defs>
</svg>
