<svg width="60" height="60" viewBox="0 0 60 60" fill="none" xmlns="http://www.w3.org/2000/svg">
<g clip-path="url(#clip0_1_1683)">
<path d="M14.2533 48H16.5033V50.2498C16.5033 51.4928 17.5107 52.5 18.7532 52.5H45.7534C46.9959 52.5 48.0033 51.4928 48.0033 50.2498V14.2501C48.0033 13.0073 46.9959 11.9999 45.7534 11.9999H43.5033V9.75018C43.5033 8.50723 42.496 7.5 41.2532 7.5H20.2535C20.2391 7.5 20.2257 7.50756 20.2113 7.50826C20.1425 7.5119 20.0746 7.52552 20.0097 7.54869C19.9874 7.5562 19.9655 7.56494 19.9442 7.57488C19.8607 7.61092 19.7845 7.66172 19.7193 7.72491L12.2194 15.2251C12.1565 15.2887 12.1057 15.3632 12.0694 15.4449C12.0587 15.4678 12.0529 15.4912 12.0447 15.5152C12.0229 15.5774 12.01 15.6424 12.0062 15.7082C12.0062 15.7246 11.9966 15.7387 11.9966 15.7552V45.7499C11.9965 46.046 12.0549 46.3391 12.1684 46.6125C12.2818 46.886 12.4481 47.1343 12.6578 47.3434C12.8675 47.5524 13.1163 47.718 13.3901 47.8307C13.6639 47.9434 13.9572 48.0009 14.2533 48.0001V48ZM45.7534 13.5C46.1675 13.5 46.5032 13.8358 46.5032 14.2502V50.2499C46.5033 50.3484 46.4839 50.4459 46.4462 50.5369C46.4086 50.6279 46.3534 50.7106 46.2838 50.7803C46.2141 50.85 46.1315 50.9052 46.0405 50.943C45.9495 50.9807 45.852 51.0001 45.7535 51.0001H18.7531C18.6546 51.0001 18.5571 50.9807 18.4661 50.943C18.3751 50.9053 18.2924 50.85 18.2228 50.7803C18.1532 50.7107 18.0979 50.628 18.0603 50.537C18.0226 50.4459 18.0033 50.3484 18.0033 50.2499V48.0002H41.2531C42.4959 48.0002 43.5033 46.9929 43.5033 45.75V13.4999L45.7534 13.5ZM42.0033 9.75018V45.7499C42.0033 45.8484 41.9839 45.946 41.9462 46.037C41.9085 46.128 41.8533 46.2107 41.7836 46.2804C41.714 46.35 41.6313 46.4053 41.5403 46.443C41.4492 46.4807 41.3517 46.5001 41.2532 46.5001H14.2532C14.0543 46.5 13.8636 46.4209 13.723 46.2802C13.5824 46.1396 13.5034 45.9488 13.5035 45.7499V16.5H18.7532C19.9959 16.5 21.0033 15.4926 21.0033 14.2502V8.99994H41.2532C41.3517 8.99993 41.4493 9.01933 41.5403 9.05703C41.6313 9.09473 41.714 9.14999 41.7837 9.21966C41.8533 9.28933 41.9086 9.37204 41.9463 9.46307C41.984 9.55409 42.0033 9.65165 42.0033 9.75018ZM19.5033 10.0604V14.2501C19.5033 14.6641 19.1676 14.9999 18.7532 14.9999H14.564L19.5033 10.0604Z" fill="#B44028"/>
<path fill-rule="evenodd" clip-rule="evenodd" d="M34.9113 22.2103C34.9814 22.3004 35.0712 22.3733 35.1737 22.4235C35.2763 22.4736 35.3889 22.4997 35.5031 22.4997C35.6172 22.4997 35.7299 22.4736 35.8324 22.4235C35.935 22.3733 36.0247 22.3004 36.0948 22.2103L39.5949 17.7103C39.7119 17.553 39.7626 17.3562 39.7363 17.162C39.7099 16.9678 39.6085 16.7916 39.4538 16.6712C39.1321 16.4205 38.6689 16.4734 38.4115 16.7896L35.5032 20.5285L35.095 20.0031C34.9715 19.8499 34.7928 19.7514 34.5973 19.7287C34.4018 19.7061 34.2053 19.7611 34.05 19.8821C33.8948 20.003 33.7932 20.1801 33.7674 20.3752C33.7415 20.5702 33.7933 20.7677 33.9116 20.9249L34.9113 22.2103ZM18.0034 19.5001H17.2532C17.0544 19.5001 16.8637 19.5791 16.723 19.7197C16.5824 19.8603 16.5034 20.0511 16.5034 20.2499C16.5033 20.3484 16.5227 20.446 16.5604 20.537C16.598 20.628 16.6533 20.7107 16.7229 20.7804C16.7925 20.85 16.8752 20.9053 16.9662 20.943C17.0572 20.9807 17.1547 21.0001 17.2532 21.0002H18.0034C18.4174 21.0002 18.7532 20.6644 18.7532 20.2499C18.7532 19.836 18.4174 19.5001 18.0034 19.5001ZM21.0034 19.5001C20.8045 19.5001 20.6138 19.5791 20.4731 19.7197C20.3325 19.8603 20.2535 20.0511 20.2535 20.2499C20.2534 20.3484 20.2728 20.446 20.3105 20.537C20.3481 20.628 20.4034 20.7107 20.473 20.7804C20.5426 20.85 20.6253 20.9053 20.7163 20.943C20.8073 20.9807 20.9049 21.0001 21.0034 21.0002H30.0032C30.1024 21.0012 30.2008 20.9826 30.2927 20.9454C30.3846 20.9082 30.4683 20.8531 30.5388 20.7834C30.6093 20.7136 30.6653 20.6306 30.7035 20.5391C30.7417 20.4475 30.7614 20.3493 30.7614 20.2501C30.7614 20.151 30.7417 20.0528 30.7035 19.9612C30.6653 19.8697 30.6093 19.7867 30.5388 19.7169C30.4683 19.6472 30.3846 19.5921 30.2927 19.5549C30.2008 19.5177 30.1024 19.4991 30.0032 19.5001H21.0034ZM34.9113 28.9604C34.9814 29.0505 35.0712 29.1234 35.1737 29.1736C35.2763 29.2237 35.3889 29.2498 35.5031 29.2498C35.6172 29.2498 35.7299 29.2237 35.8324 29.1736C35.935 29.1234 36.0247 29.0505 36.0948 28.9604L39.5949 24.4604C39.6577 24.3829 39.7044 24.2937 39.7323 24.198C39.7602 24.1022 39.7687 24.0019 39.7573 23.9028C39.746 23.8037 39.715 23.7079 39.6661 23.621C39.6173 23.534 39.5516 23.4577 39.4729 23.3964C39.3942 23.3352 39.3041 23.2902 39.2078 23.2642C39.1115 23.2382 39.011 23.2317 38.9122 23.245C38.8134 23.2583 38.7182 23.2912 38.6322 23.3417C38.5462 23.3923 38.4712 23.4594 38.4115 23.5393L35.5032 27.2782L35.095 26.7532C35.0141 26.6494 34.9073 26.5687 34.7853 26.5192C34.6633 26.4698 34.5305 26.4533 34.4001 26.4714C34.2697 26.4895 34.1464 26.5416 34.0425 26.6225C33.9386 26.7034 33.8579 26.8101 33.8083 26.9321C33.7588 27.0541 33.7423 27.187 33.7604 27.3174C33.7786 27.4478 33.8307 27.5711 33.9116 27.675L34.9113 28.9604ZM18.0034 26.2499H17.2532C17.1547 26.2499 17.0572 26.2693 16.9662 26.307C16.8752 26.3447 16.7926 26.4 16.7229 26.4696C16.6533 26.5393 16.5981 26.622 16.5604 26.713C16.5227 26.804 16.5033 26.9015 16.5034 27C16.5034 27.4141 16.8391 27.7498 17.2532 27.7498H18.0034C18.2023 27.7498 18.393 27.6708 18.5337 27.5301C18.6743 27.3895 18.7534 27.1987 18.7534 26.9998C18.7534 26.8009 18.6743 26.6102 18.5337 26.4695C18.393 26.3289 18.2023 26.2499 18.0034 26.2499ZM30.0032 26.2499H21.0034C20.9049 26.2499 20.8073 26.2693 20.7163 26.307C20.6254 26.3447 20.5427 26.4 20.473 26.4696C20.4034 26.5393 20.3482 26.622 20.3105 26.713C20.2728 26.804 20.2535 26.9015 20.2535 27C20.2535 27.4141 20.5892 27.7498 21.0034 27.7498H30.0032C30.2021 27.7498 30.3928 27.6708 30.5335 27.5301C30.6741 27.3895 30.7532 27.1987 30.7532 26.9998C30.7532 26.8009 30.6741 26.6102 30.5335 26.4695C30.3928 26.3289 30.2021 26.2499 30.0032 26.2499ZM34.9113 35.7105C34.9815 35.8006 35.0712 35.8734 35.1738 35.9235C35.2764 35.9736 35.389 35.9996 35.5032 35.9996C35.6173 35.9996 35.7299 35.9736 35.8324 35.9234C35.9349 35.8733 36.0246 35.8005 36.0947 35.7104L39.5949 31.2105C39.6577 31.133 39.7044 31.0438 39.7323 30.948C39.7602 30.8523 39.7687 30.752 39.7573 30.6529C39.746 30.5538 39.715 30.458 39.6661 30.3711C39.6173 30.2841 39.5516 30.2078 39.4729 30.1465C39.3942 30.0853 39.3041 30.0403 39.2078 30.0143C39.1115 29.9883 39.011 29.9818 38.9122 29.9951C38.8134 30.0084 38.7182 30.0413 38.6322 30.0918C38.5462 30.1424 38.4712 30.2095 38.4115 30.2894L35.5032 34.0282L35.095 33.5032C35.0345 33.4255 34.9593 33.3604 34.8736 33.3118C34.788 33.2631 34.6936 33.2318 34.5958 33.2197C34.498 33.2076 34.3988 33.2148 34.3039 33.241C34.2089 33.2672 34.1201 33.3119 34.0424 33.3724C33.7155 33.6269 33.6571 34.0982 33.9116 34.4251L34.9113 35.7105ZM18.0034 33H17.2532C17.1547 33 17.0572 33.0194 16.9662 33.0571C16.8752 33.0948 16.7926 33.1501 16.7229 33.2197C16.6533 33.2894 16.5981 33.3721 16.5604 33.4631C16.5227 33.5541 16.5033 33.6516 16.5034 33.7501C16.5034 34.1641 16.8391 34.4999 17.2532 34.4999H18.0034C18.4174 34.4999 18.7532 34.1642 18.7532 33.7501C18.7532 33.6516 18.7338 33.5541 18.6962 33.4631C18.6585 33.3721 18.6033 33.2894 18.5336 33.2197C18.464 33.1501 18.3814 33.0948 18.2904 33.0571C18.1994 33.0194 18.1019 33 18.0034 33ZM30.0032 33H21.0034C20.9049 33 20.8073 33.0194 20.7163 33.0571C20.6254 33.0948 20.5427 33.1501 20.473 33.2197C20.4034 33.2894 20.3482 33.3721 20.3105 33.4631C20.2728 33.5541 20.2535 33.6516 20.2535 33.7501C20.2535 34.1641 20.5892 34.4999 21.0034 34.4999H30.0032C30.2021 34.4999 30.3928 34.4209 30.5335 34.2802C30.6741 34.1396 30.7532 33.9488 30.7532 33.7499C30.7532 33.551 30.6741 33.3603 30.5335 33.2196C30.3928 33.079 30.2021 33 30.0032 33ZM34.9113 42.4605C34.9815 42.5505 35.0713 42.6234 35.1739 42.6735C35.2764 42.7236 35.3891 42.7496 35.5032 42.7497C35.6173 42.7496 35.7299 42.7235 35.8324 42.6734C35.9349 42.6233 36.0246 42.5505 36.0947 42.4605L39.5949 37.9606C39.6577 37.8831 39.7044 37.7939 39.7323 37.6981C39.7602 37.6024 39.7687 37.502 39.7573 37.403C39.746 37.3039 39.715 37.2081 39.6661 37.1211C39.6173 37.0342 39.5516 36.9579 39.4729 36.8966C39.3942 36.8354 39.3041 36.7904 39.2078 36.7644C39.1115 36.7384 39.011 36.7319 38.9122 36.7452C38.8134 36.7585 38.7182 36.7914 38.6322 36.8419C38.5462 36.8924 38.4712 36.9596 38.4115 37.0395L35.5032 40.7783L35.095 40.2533C35.0345 40.1756 34.9593 40.1105 34.8736 40.0619C34.788 40.0132 34.6936 39.9819 34.5958 39.9698C34.498 39.9576 34.3988 39.9649 34.3039 39.9911C34.2089 40.0173 34.1201 40.062 34.0424 40.1225C33.7155 40.3769 33.6571 40.8483 33.9116 41.1751L34.9113 42.4605ZM18.0034 39.75H17.2532C17.0544 39.75 16.8637 39.829 16.7231 39.9696C16.5824 40.1102 16.5034 40.3009 16.5034 40.4998C16.5033 40.5983 16.5227 40.6958 16.5604 40.7868C16.598 40.8779 16.6533 40.9606 16.7229 41.0302C16.7926 41.0999 16.8753 41.1552 16.9663 41.1929C17.0573 41.2306 17.1548 41.25 17.2533 41.25H18.0035C18.4174 41.25 18.7533 40.9142 18.7533 40.4998C18.7533 40.0858 18.4174 39.75 18.0034 39.75ZM30.0032 39.75H21.0034C20.8045 39.75 20.6138 39.829 20.4732 39.9696C20.3325 40.1102 20.2535 40.3009 20.2535 40.4998C20.2534 40.5983 20.2728 40.6958 20.3105 40.7868C20.3481 40.8778 20.4034 40.9605 20.473 41.0302C20.5426 41.0999 20.6253 41.1551 20.7163 41.1928C20.8073 41.2306 20.9049 41.25 21.0034 41.25H30.0032C30.1026 41.2515 30.2014 41.2332 30.2937 41.1962C30.386 41.1592 30.4701 41.1042 30.541 41.0344C30.6118 40.9646 30.6681 40.8814 30.7065 40.7897C30.7449 40.698 30.7647 40.5995 30.7647 40.5C30.7647 40.4006 30.7449 40.3021 30.7065 40.2103C30.6681 40.1186 30.6118 40.0354 30.541 39.9656C30.4701 39.8958 30.386 39.8408 30.2937 39.8038C30.2014 39.7668 30.1026 39.7485 30.0032 39.75Z" fill="#B44028"/>
</g>
<defs>
<clipPath id="clip0_1_1683">
<rect width="45" height="45" fill="white" transform="translate(7.5 7.5)"/>
</clipPath>
</defs>
</svg>
