<svg width="60" height="60" viewBox="0 0 60 60" fill="none" xmlns="http://www.w3.org/2000/svg">
<path d="M34.6875 26.6268C34.0406 26.6268 33.5156 27.1518 33.5156 27.7987C33.5156 28.4456 34.0406 28.9706 34.6875 28.9706C35.3344 28.9706 35.8594 28.4456 35.8594 27.7987C35.8594 27.1518 35.3344 26.6268 34.6875 26.6268ZM30 19.5956C29.3531 19.5956 28.8281 20.1206 28.8281 20.7675C28.8281 21.4143 29.3531 21.9393 30 21.9393C30.6469 21.9393 31.1719 21.4143 31.1719 20.7675C31.1719 20.1206 30.6469 19.5956 30 19.5956ZM15.9375 50.0643C15.2906 50.0643 14.7656 50.5893 14.7656 51.2362C14.7656 51.8831 15.2906 52.4081 15.9375 52.4081C16.5844 52.4081 17.1094 51.8831 17.1094 51.2362C17.1094 50.5893 16.5844 50.0643 15.9375 50.0643Z" fill="#B44028"/>
<path d="M53.2519 47.2141L37.404 20.4605L37.404 6.2697C38.7682 5.78607 40.2773 5.14805 40.2773 2.95494C40.2773 1.40204 38.6001 0.5608 36.6615 0.5608H22.9687C21.0302 0.5608 20.1296 1.97903 20.1296 3.18931C20.1296 5.82559 21.6046 5.98693 22.9687 6.47056V20.4605L6.74812 47.2141C5.30343 49.7824 5.32909 52.8343 6.81655 55.3777C8.3039 57.9209 10.9509 59.4393 13.8973 59.4393H46.1027C49.0491 59.4393 51.696 57.9209 53.1834 55.3777C54.6709 52.8343 54.6966 49.7824 53.2519 47.2141ZM23.9901 21.3419C24.0888 21.1665 24.1406 20.9687 24.1406 20.7674V6.47056H25.3125C25.9596 6.47056 26.4844 5.9458 26.4844 5.29869C26.4844 4.65158 25.9596 4.63614 25.3125 4.63614H22.9687C22.3226 4.63614 21.4621 3.83548 21.4621 3.18931C21.4621 1.54634 22.3226 1.78306 22.9687 1.78306H37.0312C37.6774 1.78306 39.2387 2.09442 39.2387 2.95494C39.2387 4.44083 37.8237 4.63614 37.1775 4.63614H35.8594H34.6875C34.0404 4.63614 33.6615 4.81475 33.6615 5.46186C33.6615 6.10897 34.0404 6.2697 34.6875 6.2697H35.8594V20.7674C35.8594 20.9688 35.9112 21.1665 36.0098 21.3419L43.8442 34.6487C39.6261 34.3071 34.3907 35.4933 30.5287 37.4931C21.4906 41.4671 19.1612 39.7721 13.9497 38.0662L23.9901 21.3419ZM51.6479 54.3112C50.5856 56.1277 48.2072 57.9369 46.1027 57.9369L13.8973 57.9775C11.7928 57.9775 9.15468 56.3477 8.09237 54.5312C7.02983 52.7144 7.1862 49.5675 8.21827 47.7328L13.4576 38.9018C15.8688 39.7437 18.6637 40.795 21.1946 40.795C21.5693 40.795 21.9449 40.7858 22.3212 40.7671C25.5913 40.6052 28.3881 39.5982 31.3485 38.0662C35.3085 36.0159 40.385 35.2514 44.7004 35.9493L52.046 48.3124C53.078 50.147 52.7105 52.4944 51.6479 54.3112Z" fill="#B44028"/>
<path d="M25.3125 26.6268C23.374 26.6268 21.7969 28.2039 21.7969 30.1425C21.7969 32.081 23.374 33.6581 25.3125 33.6581C27.251 33.6581 28.8281 32.081 28.8281 30.1425C28.8281 28.2039 27.251 26.6268 25.3125 26.6268ZM25.3125 32.7091C23.7126 32.7091 22.8918 31.1058 22.9882 30.1425C23.2296 27.7289 24.6663 27.7289 25.3125 27.7289C25.9587 27.7289 27.5759 28.0911 27.5759 30.1425C27.5759 31.6225 26.6705 32.7091 25.3125 32.7091ZM44.0625 50.4993H20.625C19.9779 50.4993 19.4531 50.5891 19.4531 51.2362C19.4531 51.8833 19.9779 51.8941 20.625 51.8941H44.0625C44.7096 51.8941 45.2344 51.8833 45.2344 51.2362C45.2344 50.5891 44.7096 50.4993 44.0625 50.4993Z" fill="#B44028"/>
</svg>
