<svg width="60" height="60" viewBox="0 0 60 60" fill="none" xmlns="http://www.w3.org/2000/svg">
<g clip-path="url(#clip0_2745_987)">
<path d="M59.7717 14.2682C59.6838 14.1639 59.5749 14.0802 59.4523 14.0228C59.3297 13.9655 59.1964 13.9359 59.0615 13.936C52.0385 13.936 46.3256 8.11263 46.3256 0.954638C46.3256 0.42654 45.9061 0 45.3893 0H14.6053C14.0873 0 13.669 0.427735 13.669 0.954638C13.669 8.11263 7.95723 13.936 0.936531 13.936C0.663484 13.936 0.4045 14.0579 0.226375 14.2682C0.0482499 14.4785 -0.0302658 14.7593 0.0107499 15.0341C1.00216 21.695 2.44473 27.7012 4.29864 32.8854C6.07638 37.8581 8.29239 42.2394 10.8834 45.911C15.7068 52.7428 21.865 57.3368 29.7084 59.9522C29.8033 59.9833 29.9018 60 30.0002 60C30.0986 60 30.1971 59.9845 30.292 59.9522C38.1354 57.3356 44.2936 52.7428 49.117 45.911C51.7092 42.2406 53.924 37.8581 55.7018 32.8854C57.5557 27.7012 58.9983 21.695 59.9897 15.0341C60.0094 14.8979 60.0001 14.7591 59.9625 14.6269C59.9249 14.4948 59.8598 14.3724 59.7717 14.2682ZM29.999 58.0382C14.849 52.848 5.68966 39.0231 2.02403 15.8047C9.2627 15.2587 15.0506 9.30981 15.5123 1.90928H44.4822C44.944 9.30981 50.733 15.2599 57.974 15.8047C54.3084 39.0231 45.149 52.848 29.999 58.0382ZM41.8057 6.00741C41.7497 5.8081 41.6316 5.63279 41.4692 5.50798C41.3068 5.38318 41.109 5.31565 40.9057 5.31562H19.0936C18.8902 5.31546 18.6923 5.38291 18.5299 5.50774C18.3674 5.63258 18.2494 5.808 18.1936 6.00741C16.567 11.7854 12.258 16.3806 6.667 18.2994C6.45114 18.3735 6.26916 18.5253 6.15506 18.7262C6.04097 18.9272 6.00258 19.1637 6.04708 19.3915C7.59161 27.3117 9.79473 33.7516 12.7807 39.078C16.4815 45.6804 21.4291 50.4859 27.4877 53.3605C28.2354 53.713 28.9479 54.0189 29.6674 54.2973C29.774 54.3391 29.8877 54.3594 30.0002 54.3594C30.1139 54.3594 30.2264 54.3391 30.3342 54.2973C31.0654 54.0129 31.7979 53.6975 32.5115 53.3594C38.569 50.4859 43.5178 45.6804 47.2186 39.078C50.2045 33.7504 52.4065 27.3117 53.9498 19.3915C53.9942 19.1639 53.9557 18.9276 53.8416 18.7269C53.7275 18.5261 53.5456 18.3746 53.3299 18.3006C47.74 16.3806 43.4322 11.7842 41.8057 6.00741ZM31.7205 51.6281C31.1557 51.8957 30.5779 52.1478 29.9979 52.3808C29.4318 52.1538 28.8647 51.9053 28.274 51.6281C18.0365 46.7689 11.4143 36.3623 8.04513 19.824C13.6186 17.6423 17.9346 13.0137 19.7861 7.22609H40.2119C42.0635 13.0137 46.3783 17.6423 51.9506 19.824C48.585 36.3611 41.9627 46.7689 31.7205 51.6281ZM42.5955 19.8072L30.4678 12.6672C30.3255 12.5832 30.164 12.539 29.9996 12.539C29.8352 12.539 29.6737 12.5832 29.5315 12.6672L17.4025 19.8072C17.1131 19.9781 16.9338 20.2935 16.9338 20.634V34.913C16.9338 35.2547 17.1119 35.5689 17.4025 35.7398L29.5303 42.8798C29.6756 42.9647 29.8373 43.0077 29.999 43.0077C30.1608 43.0077 30.3225 42.9647 30.4678 42.8798L42.5955 35.741C42.885 35.5701 43.0643 35.2547 43.0643 34.9142V20.634C43.0643 20.2935 42.885 19.9781 42.5955 19.8072ZM29.999 26.6713L27.1924 25.0177L37.4475 18.9828L40.2529 20.634L29.999 26.6713ZM23.4811 23.946L34.6807 17.3543L35.5736 17.88L24.8557 24.1861C24.7442 24.252 24.6473 24.3406 24.571 24.4465C24.4948 24.5524 24.4409 24.6733 24.4127 24.8015C24.4104 24.8122 24.408 24.823 24.4068 24.8325C24.4022 24.854 24.3975 24.8767 24.3951 24.8994C24.3904 24.9353 24.3893 24.9699 24.3881 25.0058V28.1815L23.4811 27.6475V23.946ZM29.999 14.598L32.8068 16.2515L22.7768 22.155L22.5506 22.2888L19.744 20.6352L29.999 14.598ZM18.8076 22.2888L21.6084 23.9388V28.2006C21.6084 28.5424 21.7865 28.8578 22.0772 29.0274L24.858 30.6631C25.0033 30.7479 25.165 30.791 25.3268 30.791C25.4885 30.791 25.6502 30.7479 25.7955 30.6631C26.085 30.4923 26.2643 30.1768 26.2643 29.8363V26.6749L29.0639 28.3249V40.3983L18.81 34.3622V22.2888H18.8076ZM30.9354 40.3983V28.3249L41.1893 22.2876V34.361L30.9354 40.3983Z" fill="#B44028"/>
</g>
<defs>
<clipPath id="clip0_2745_987">
<rect width="60" height="60" fill="white"/>
</clipPath>
</defs>
</svg>
