<svg width="60" height="60" viewBox="0 0 60 60" fill="none" xmlns="http://www.w3.org/2000/svg">
<g clip-path="url(#clip0_2745_1045)">
<path d="M59.5835 12.5769L38.3778 0.113651C38.2511 0.039197 38.1074 0 37.9612 0C37.8149 0 37.6712 0.039197 37.5445 0.113651L16.3395 12.5769C16.2128 12.6514 16.1076 12.7585 16.0344 12.8874C15.9613 13.0164 15.9228 13.1627 15.9228 13.3116V31.5443C15.7773 31.5298 15.6313 31.5222 15.4851 31.5215C13.8672 31.5215 12.4753 32.3395 11.6664 33.7659L0.606671 53.2669C-0.202224 54.6933 -0.202224 56.3293 0.606671 57.7556C1.41557 59.182 2.80741 60 4.4252 60H26.5447C28.1625 60 29.5544 59.182 30.3633 57.7556C31.1722 56.3293 31.1722 54.6931 30.3633 53.2669L25.2153 44.1898L37.5446 51.4364C37.6713 51.5108 37.815 51.55 37.9613 51.55C38.1076 51.55 38.2513 51.5108 38.3779 51.4364L59.5834 38.9729C59.71 38.8984 59.8152 38.7913 59.8884 38.6624C59.9615 38.5334 60 38.3871 60 38.2382V13.3116C60 13.1627 59.9615 13.0164 59.8884 12.8874C59.8152 12.7585 59.7102 12.6514 59.5835 12.5769ZM37.9614 24.7956L32.1252 21.3655L51.664 9.8815L57.5002 13.3117L37.9614 24.7956ZM25.0919 19.1908L29.6253 21.8552V29.8231L25.0919 27.1585V19.1908ZM25.9252 17.7215L45.4642 6.23755L49.9977 8.90208L30.4587 20.386L25.9252 17.7215ZM37.9612 1.82771L43.7975 5.25788L24.2585 16.7419L18.4223 13.3117L37.9612 1.82771ZM28.9201 56.9072C28.4095 57.8075 27.566 58.3033 26.5449 58.3033H4.4252C3.40405 58.3033 2.56052 57.8075 2.04994 56.9072C1.53937 56.0069 1.53937 55.0154 2.04994 54.1151L13.1097 34.614C13.6203 33.7137 14.4638 33.218 15.4851 33.218C16.5064 33.218 17.3498 33.7137 17.8603 34.614L28.9201 54.1151C29.4307 55.0154 29.4307 56.0069 28.9201 56.9072ZM19.3036 33.7657C18.8771 33.0139 18.2876 32.433 17.5894 32.05V14.7811L23.4254 18.2111V27.6481C23.4253 27.797 23.4638 27.9433 23.537 28.0723C23.6101 28.2012 23.7153 28.3083 23.842 28.3828L30.042 32.0268C30.1687 32.1013 30.3123 32.1405 30.4586 32.1405C30.6049 32.1405 30.7486 32.1013 30.8753 32.0268C31.0019 31.9524 31.1071 31.8453 31.1803 31.7163C31.2534 31.5874 31.2919 31.4411 31.2919 31.2922V22.8346L37.1281 26.2648V49.2325L23.5488 41.2512L19.3036 33.7657ZM38.7947 49.2324V26.2647L58.3335 14.7808V37.7484L38.7947 49.2324ZM16.3271 37.4396H14.6431C13.6239 37.4396 12.7947 38.2837 12.7947 39.3213V48.6704C12.7947 49.7079 13.6239 50.552 14.6431 50.552H16.3271C17.3462 50.552 18.1753 49.7079 18.1753 48.6704V39.3213C18.1753 38.2837 17.3462 37.4396 16.3271 37.4396ZM16.5087 48.6704C16.5087 48.7708 16.4255 48.8554 16.3271 48.8554H14.6431C14.5951 48.8547 14.5492 48.835 14.5153 48.8005C14.4813 48.766 14.462 48.7193 14.4613 48.6704V39.3213C14.4613 39.2209 14.5445 39.1362 14.6431 39.1362H16.3271C16.4256 39.1362 16.5087 39.2209 16.5087 39.3213V48.6704ZM15.485 51.2249C14.0016 51.2249 12.7946 52.4535 12.7946 53.9637C12.7946 55.4739 14.0015 56.7025 15.485 56.7025C16.9685 56.7025 18.1753 55.4738 18.1753 53.9637C18.1753 52.4536 16.9685 51.2249 15.485 51.2249ZM15.485 55.0059C14.9205 55.0059 14.4612 54.5384 14.4612 53.9637C14.4612 53.389 14.9205 52.9215 15.485 52.9215C16.0495 52.9215 16.5087 53.389 16.5087 53.9637C16.5087 54.5384 16.0495 55.0059 15.485 55.0059Z" fill="#B44028"/>
</g>
<defs>
<clipPath id="clip0_2745_1045">
<rect width="60" height="60" fill="white"/>
</clipPath>
</defs>
</svg>
